<svg width="31" height="32" viewBox="0 0 31 32" fill="none" xmlns="http://www.w3.org/2000/svg">
<g clip-path="url(#clip0_130_911)">
<path d="M28.3438 2.767C28.2434 2.317 27.8647 2 27.4325 2C27.4306 2 27.4288 2 27.4269 2C22.4891 2.033 10.4816 2.916 5.63375 10.38C3.11562 14.258 2.89906 19.293 4.98969 25.345C5.00562 25.392 5.03844 25.424 5.06 25.467C4.31281 27.44 4.02312 28.753 4.01562 28.79C3.90687 29.33 4.23031 29.862 4.73656 29.978C4.80219 29.993 4.86781 30 4.93344 30C5.36562 30 5.75469 29.679 5.84937 29.21C5.86906 29.108 8.25781 18.837 16.7028 12.832C17.1341 12.526 17.2503 11.905 16.9625 11.445C16.6747 10.985 16.0934 10.86 15.6622 11.168C10.8734 14.573 7.92406 19.176 6.18969 22.824C4.94844 18.246 5.27375 14.447 7.17594 11.519C10.9194 5.755 19.7984 4.365 25.1581 4.071C24.005 5.872 22.745 9.174 22.745 15C22.745 18.12 21.9153 20.522 20.2803 22.14C17.6591 24.731 13.4009 24.974 10.2866 24.724C9.76906 24.679 9.32 25.095 9.28062 25.646C9.24125 26.196 9.62844 26.676 10.1441 26.718C10.7675 26.769 11.4331 26.8 12.125 26.8C15.2956 26.8 18.9941 26.137 21.5544 23.606C23.5888 21.595 24.62 18.7 24.62 15.001C24.62 5.902 27.8356 3.905 27.8516 3.896C28.2416 3.687 28.4459 3.219 28.3438 2.767Z" fill="white"/>
</g>
<defs>
<clipPath id="clip0_130_911">
<rect width="30" height="32" fill="white" transform="translate(0.5)"/>
</clipPath>
</defs>
</svg>
